<?xml version="1.0" encoding="UTF-8"?>
<svg width="24px" height="20px" viewBox="0 0 24 20" version="1.1" xmlns="http://www.w3.org/2000/svg" xmlns:xlink="http://www.w3.org/1999/xlink">
    <!-- Generator: Sketch 64 (93537) - https://sketch.com -->
    <title>dog</title>
    <desc>Created with Sketch.</desc>
    <g id="Page-2" stroke="none" stroke-width="1" fill="none" fill-rule="evenodd">
        <g id="new-customer" transform="translate(-322.000000, -164.000000)" fill="#000000" fill-rule="nonzero">
            <g id="Group-2" transform="translate(292.000000, 124.000000)">
                <g id="dog" transform="translate(30.000000, 40.000000)">
                    <path d="M23.003797,5.08532033 C22.2400164,3.85682395 21.1670016,2.68824548 20.4425022,2.075184 C18.860941,0.736524627 17.5416452,0.769125704 16.8958488,0.907769849 C16.6245365,0.966030841 16.3753961,1.06208759 16.1560682,1.19020803 C15.029241,0.39134728 13.6584296,0 12,0 C10.3415573,0 8.97069899,0.39134728 7.84391865,1.19025282 C7.62454383,1.06213237 7.37545028,0.966030841 7.104138,0.907814631 C6.45852915,0.769215268 5.13904584,0.736569408 3.55757837,2.075184 C2.83303208,2.68829026 1.7600642,3.85686873 0.996189819,5.08536512 C-0.0379655938,6.74860225 -0.268309157,8.09406844 0.311534123,9.08450531 C1.01953355,10.2937456 2.09343893,10.6031871 2.96039135,10.6794951 C2.74729778,11.4701161 2.61571976,12.315908 2.61571976,13.3697558 C2.61571976,14.7666314 2.94853199,15.9683931 3.60501583,16.9416786 C4.18209349,17.7973673 5.01290532,18.4825721 6.07434196,18.9782607 C8.03549662,19.8940913 10.3955103,20 12.0000403,20 C13.6045702,20 15.9646308,19.8940913 17.9257386,18.9782607 C18.9871284,18.4825721 19.8179871,17.7973673 20.3950647,16.9416786 C21.0515017,15.9683483 21.3843608,14.7665866 21.3843608,13.3697558 C21.3843608,12.3159528 21.2527828,11.4701608 21.0396892,10.6794951 C21.9066416,10.6031423 22.9805939,10.293656 23.6885464,9.08446053 C24.268296,8.09411322 24.0379055,6.74860225 23.003797,5.08532033 Z M3.41615661,9.29721838 C2.64890723,9.27796225 2.02500149,9.13604904 1.59370496,8.39943485 C1.30111145,7.8996263 1.54368938,6.95294115 2.25932942,5.80200667 C2.93850075,4.70964665 3.91335933,3.64894729 4.53173383,3.12558356 C5.55295175,2.26111762 6.31851363,2.21351467 6.67870084,2.25959504 C5.60681109,3.50792972 4.94981162,5.13028116 4.40039019,6.707627 C4.17285912,7.36081288 3.95357805,7.91847939 3.74142197,8.45787497 C3.62798456,8.74644825 3.51885965,9.02400523 3.41615661,9.29721838 Z M11.0416348,13.8985381 C10.6616195,13.535672 10.462729,13.1547588 10.462729,12.9660488 C10.462729,12.7975352 10.4929634,12.7854442 10.6053227,12.7402594 C10.9256193,12.611512 11.5546813,12.5966445 11.9999934,12.5966445 C12.4453055,12.5966445 13.0743675,12.611512 13.3946642,12.7402594 C13.5070234,12.7853994 13.5372578,12.79758 13.5372578,12.9660488 C13.5372578,13.1547588 13.3384142,13.5356272 12.958352,13.8985381 C12.5846179,14.2553587 12.1856651,14.4478752 11.9999465,14.4478752 C11.8142279,14.4478752 11.4153689,14.2553587 11.0416348,13.8985381 Z M17.2805985,17.7174319 C16.1532088,18.2438408 14.6608038,18.529369 12.7345241,18.5859282 L12.7345241,15.7112118 C13.3112736,15.4985883 13.7809607,15.0973442 13.9968668,14.8912141 C14.3003822,14.6014317 15.0063191,13.8336942 15.0063191,12.9660935 C15.0063191,12.2563484 14.6362881,11.7167289 13.9643824,11.4466952 C13.5165391,11.2666728 12.9473833,11.1932308 12.0000403,11.1932308 C11.0526973,11.1932308 10.4835415,11.2666728 10.0356512,11.4466952 C9.36379242,11.7167289 8.99371459,12.2563036 8.99371459,12.9660935 C8.99371459,13.8336942 9.6996984,14.6013869 10.0031669,14.8912141 C10.219073,15.097389 10.688807,15.498633 11.2655096,15.7112118 L11.2655096,18.5859282 C9.33922994,18.5294137 7.8468249,18.2439304 6.71943518,17.7174319 C4.94653037,16.8895079 4.08468732,15.4673754 4.08468732,13.3697558 C4.08468732,11.5752635 4.51753072,10.4746636 5.11654586,8.95141409 C5.32340507,8.42545302 5.55777988,7.82931903 5.79417031,7.15074192 C7.09260676,3.42329231 8.4661369,1.40341371 11.9999934,1.40341371 C15.5338499,1.40341371 16.9073801,3.42333709 18.2057696,7.15074192 C18.4421132,7.82936381 18.6765818,8.42545302 18.8833941,8.95141409 C19.4824092,10.4746636 19.9152526,11.5752187 19.9152526,13.3697558 C19.9152526,15.4673754 19.0534564,16.8895079 17.2805985,17.7174319 Z M22.4063756,8.39943485 C21.9750322,9.13613861 21.3511265,9.27791747 20.5838771,9.29721838 C20.4811272,9.02396045 20.372096,8.74644825 20.2586586,8.45787497 C20.0465494,7.91852417 19.8272683,7.36081288 19.5996904,6.707627 C19.050269,5.13028116 18.3932695,3.50792972 17.3213797,2.25959504 C17.6815669,2.21360423 18.4471757,2.26111762 19.4684405,3.12562834 C20.086815,3.64890251 21.0616267,4.70955709 21.740798,5.8019171 C22.4563912,6.95294115 22.6989691,7.89967108 22.4063756,8.39943485 Z" id="Shape"></path>
                    <path d="M9.49984201,8 C9.22427748,8 9,8.22370221 9,8.499916 C9,8.77610579 9.22425318,9 9.49984201,9 C9.77577113,9 10,8.77608179 10,8.499916 C10,8.22370221 9.77577113,8 9.49984201,8 Z" id="Path"></path>
                    <path d="M15.5001689,8 C15.2240181,8 15,8.22386033 15,8.5 C15,8.77613967 15.2240181,9 15.5001689,9 C15.776006,9 16,8.77613967 16,8.5 C16.0000241,8.22386033 15.776006,8 15.5001689,8 Z" id="Path"></path>
                </g>
            </g>
        </g>
    </g>
</svg>