<?xml version="1.0" encoding="UTF-8"?>
<svg width="431px" height="120px" viewBox="0 0 431 120" version="1.1" xmlns="http://www.w3.org/2000/svg" xmlns:xlink="http://www.w3.org/1999/xlink">
    <!-- Generator: Sketch 64 (93537) - https://sketch.com -->
    <title>Group</title>
    <desc>Created with Sketch.</desc>
    <g id="Page-1" stroke="none" stroke-width="1" fill="none" fill-rule="evenodd">
        <g id="Group">
            <path d="M80,40 L182,40.002 C182.217967,50.89325 182.217967,58.2523533 182,62.07931 C181.119681,77.5355189 182.000613,90.9241981 170,95.3504735 C159.907173,99.0730859 129.907173,100.61541 80,99.9774446 L80,40 Z" id="Rectangle" fill="#F97A93"></path>
            <path d="M182,40 L182.000613,59.8697469 C181.346142,59.9569737 180.678329,60.002 180,60.002 C171.715729,60.002 165,53.2862712 165,45.002 C165,43.2484169 165.30091,41.5651153 165.853913,40.0009136 L182,40 Z" id="Combined-Shape" fill="#D35190" opacity="0.745837984"></path>
            <path d="M0,120 L20,60 L80,60 L80,120 L0,120 Z" id="Combined-Shape" fill="#993065"></path>
            <path d="M80,0 C113.137085,0 140,26.862915 140,60 C140,75.3678674 134.222343,89.3862907 124.720686,100.001614 L80,100 L80,120 C46.862915,120 20,93.137085 20,60 C20,26.862915 46.862915,0 80,0 Z" id="Combined-Shape" fill="#D35190" opacity="0.547898065"></path>
            <circle id="Oval" fill="#FFFFFF" cx="100" cy="40" r="10"></circle>
            <path d="M231.2525,97.22 C231.7325,97.22 232.1725,97.17 232.5725,97.07 C232.9725,96.97 233.2725,96.88 233.4725,96.8 L233.4725,96.8 L233.4725,85.16 C234.2725,85.6 235.2925,85.98 236.5325,86.3 C237.7725,86.62 239.0925,86.78 240.4925,86.78 C242.4525,86.78 244.2625,86.48 245.9225,85.88 C247.5825,85.28 249.0125,84.37 250.2125,83.15 C251.4125,81.93 252.3425,80.4 253.0025,78.56 C253.6625,76.72 253.9925,74.56 253.9925,72.08 C253.9925,69.52 253.6225,67.32 252.8825,65.48 C252.1425,63.64 251.1425,62.13 249.8825,60.95 C248.6225,59.77 247.1225,58.9 245.3825,58.34 C243.6425,57.78 241.7925,57.5 239.8325,57.5 C237.9125,57.5 236.2025,57.75 234.7025,58.25 C233.2025,58.75 231.9125,59.3 230.8325,59.9 C229.9525,60.42 229.3725,60.92 229.0925,61.4 C228.8125,61.88 228.6725,62.52 228.6725,63.32 L228.6725,63.32 L228.6725,95 C228.6725,96.48 229.5325,97.22 231.2525,97.22 Z M239.8325,82.82 C238.4325,82.82 237.2125,82.64 236.1725,82.28 C235.1325,81.92 234.2325,81.46 233.4725,80.9 L233.4725,80.9 L233.4725,63.2 C234.2725,62.76 235.1725,62.36 236.1725,62 C237.1725,61.64 238.3925,61.46 239.8325,61.46 C241.0725,61.46 242.2525,61.64 243.3725,62 C244.4925,62.36 245.4825,62.96 246.3425,63.8 C247.2025,64.64 247.8825,65.74 248.3825,67.1 C248.8825,68.46 249.1325,70.12 249.1325,72.08 C249.1325,75.84 248.2825,78.57 246.5825,80.27 C244.8825,81.97 242.6325,82.82 239.8325,82.82 Z M277.6575,86.78 C278.9775,86.78 280.2075,86.66 281.3475,86.42 C282.4875,86.18 283.4875,85.86 284.3475,85.46 C285.2075,85.06 285.8875,84.6 286.3875,84.08 C286.8875,83.56 287.1375,83.02 287.1375,82.46 C287.1375,81.5 286.6575,80.74 285.6975,80.18 C284.8975,80.82 283.8175,81.42 282.4575,81.98 C281.0975,82.54 279.5775,82.82 277.8975,82.82 C272.0975,82.82 268.6575,80.2 267.5775,74.96 L267.5775,74.96 L286.0575,72.38 C286.7775,72.3 287.3375,72.07 287.7375,71.69 C288.1375,71.31 288.3375,70.68 288.3375,69.8 C288.3375,68 288.0275,66.35 287.4075,64.85 C286.7875,63.35 285.9275,62.05 284.8275,60.95 C283.7275,59.85 282.4175,59 280.8975,58.4 C279.3775,57.8 277.7175,57.5 275.9175,57.5 C273.9975,57.5 272.2175,57.83 270.5775,58.49 C268.9375,59.15 267.5275,60.1 266.3475,61.34 C265.1675,62.58 264.2475,64.09 263.5875,65.87 C262.9275,67.65 262.5975,69.68 262.5975,71.96 C262.5975,76.8 263.9475,80.48 266.6475,83 C269.3475,85.52 273.0175,86.78 277.6575,86.78 Z M267.2775,71.24 C267.3575,68.08 268.1975,65.65 269.7975,63.95 C271.3975,62.25 273.4175,61.4 275.8575,61.4 C278.2575,61.4 280.1275,62.11 281.4675,63.53 C282.8075,64.95 283.5775,66.76 283.7775,68.96 L283.7775,68.96 L267.2775,71.24 Z M307.5025,86.78 C309.3425,86.78 310.7825,86.5 311.8225,85.94 C312.8625,85.38 313.3825,84.66 313.3825,83.78 C313.3825,83.3 313.2825,82.88 313.0825,82.52 C312.8825,82.16 312.6625,81.86 312.4225,81.62 C311.8625,81.94 311.1625,82.22 310.3225,82.46 C309.4825,82.7 308.7225,82.82 308.0425,82.82 C306.4025,82.82 305.1325,82.49 304.2325,81.83 C303.3325,81.17 302.8825,80.04 302.8825,78.44 L302.8825,78.44 L302.8825,62.84 L311.4625,62.84 C312.6625,62.84 313.2625,62.16 313.2625,60.8 C313.2625,60.4 313.2025,60.03 313.0825,59.69 C312.9625,59.35 312.8425,59.08 312.7225,58.88 L312.7225,58.88 L302.8825,58.88 L302.8825,51.98 C302.8825,50.54 302.0425,49.82 300.3625,49.82 C299.8825,49.82 299.4325,49.87 299.0125,49.97 C298.5925,50.07 298.2825,50.16 298.0825,50.24 L298.0825,50.24 L298.0825,78.74 C298.0825,81.62 298.9525,83.68 300.6925,84.92 C302.4325,86.16 304.7025,86.78 307.5025,86.78 Z M344.8475,86.3 C345.2875,86.3 345.7175,86.25 346.1375,86.15 C346.5575,86.05 346.8675,85.96 347.0675,85.88 L347.0675,85.88 L347.0675,67.7 C347.0675,64.18 346.0175,61.6 343.9175,59.96 C341.8175,58.32 338.9475,57.5 335.3075,57.5 C333.1475,57.5 331.2075,57.76 329.4875,58.28 C327.7675,58.8 326.3875,59.38 325.3475,60.02 C324.5075,60.54 323.9175,61.07 323.5775,61.61 C323.2375,62.15 323.0675,62.84 323.0675,63.68 L323.0675,63.68 L323.0675,84.14 C323.0675,85.58 323.9275,86.3 325.6475,86.3 C326.1275,86.3 326.5675,86.25 326.9675,86.15 C327.3675,86.05 327.6675,85.96 327.8675,85.88 L327.8675,85.88 L327.8675,63.44 C328.7475,62.92 329.8075,62.46 331.0475,62.06 C332.2875,61.66 333.7075,61.46 335.3075,61.46 C337.4275,61.46 339.1175,61.98 340.3775,63.02 C341.6375,64.06 342.2675,65.7 342.2675,67.94 L342.2675,67.94 L342.2675,84.14 C342.2675,85.58 343.1275,86.3 344.8475,86.3 Z M361.4925,52.52 C362.4125,52.52 363.1525,52.23 363.7125,51.65 C364.2725,51.07 364.5525,50.36 364.5525,49.52 C364.5525,48.68 364.2725,47.97 363.7125,47.39 C363.1525,46.81 362.4125,46.52 361.4925,46.52 C360.5725,46.52 359.8225,46.81 359.2425,47.39 C358.6625,47.97 358.3725,48.68 358.3725,49.52 C358.3725,50.36 358.6625,51.07 359.2425,51.65 C359.8225,52.23 360.5725,52.52 361.4925,52.52 Z M361.6725,86.3 C362.1525,86.3 362.5925,86.25 362.9925,86.15 C363.3925,86.05 363.6925,85.96 363.8925,85.88 L363.8925,85.88 L363.8925,60.2 C363.8925,58.72 363.0525,57.98 361.3725,57.98 C360.8925,57.98 360.4425,58.03 360.0225,58.13 C359.6025,58.23 359.2925,58.32 359.0925,58.4 L359.0925,58.4 L359.0925,84.14 C359.0925,85.58 359.9525,86.3 361.6725,86.3 Z M388.8175,86.78 C390.0575,86.78 391.2075,86.67 392.2675,86.45 C393.3275,86.23 394.2475,85.94 395.0275,85.58 C395.8075,85.22 396.4175,84.8 396.8575,84.32 C397.2975,83.84 397.5175,83.32 397.5175,82.76 C397.5175,82.24 397.3775,81.8 397.0975,81.44 C396.8175,81.08 396.4575,80.78 396.0175,80.54 C395.1375,81.14 394.1375,81.67 393.0175,82.13 C391.8975,82.59 390.4975,82.82 388.8175,82.82 C385.9375,82.82 383.6375,81.91 381.9175,80.09 C380.1975,78.27 379.3375,75.64 379.3375,72.2 C379.3375,70.48 379.5775,68.95 380.0575,67.61 C380.5375,66.27 381.1975,65.15 382.0375,64.25 C382.8775,63.35 383.8775,62.67 385.0375,62.21 C386.1975,61.75 387.4575,61.52 388.8175,61.52 C390.4975,61.52 391.8575,61.74 392.8975,62.18 C393.9375,62.62 394.8975,63.14 395.7775,63.74 C396.2175,63.54 396.5775,63.26 396.8575,62.9 C397.1375,62.54 397.2775,62.12 397.2775,61.64 C397.2775,61.12 397.0675,60.61 396.6475,60.11 C396.2275,59.61 395.6375,59.16 394.8775,58.76 C394.1175,58.36 393.2075,58.05 392.1475,57.83 C391.0875,57.61 389.9375,57.5 388.6975,57.5 C386.7375,57.5 384.8875,57.81 383.1475,58.43 C381.4075,59.05 379.8975,59.98 378.6175,61.22 C377.3375,62.46 376.3175,63.99 375.5575,65.81 C374.7975,67.63 374.4175,69.76 374.4175,72.2 C374.4175,74.68 374.7775,76.83 375.4975,78.65 C376.2175,80.47 377.2175,81.98 378.4975,83.18 C379.7775,84.38 381.2975,85.28 383.0575,85.88 C384.8175,86.48 386.7375,86.78 388.8175,86.78 Z M427.6025,86.36 C428.3625,86.36 428.9725,86.1 429.4325,85.58 C429.8925,85.06 430.1625,84.36 430.2425,83.48 L430.2425,83.48 L416.8625,71.48 L426.5225,63.02 C427.1225,62.46 427.6025,61.97 427.9625,61.55 C428.3225,61.13 428.5025,60.64 428.5025,60.08 C428.5025,59.4 428.2325,58.85 427.6925,58.43 C427.1525,58.01 426.4025,57.78 425.4425,57.74 L425.4425,57.74 L412.3025,70.46 L412.3025,48.86 C412.3025,47.42 411.4625,46.7 409.7825,46.7 C409.3025,46.7 408.8525,46.75 408.4325,46.85 C408.0125,46.95 407.7025,47.04 407.5025,47.12 L407.5025,47.12 L407.5025,84.14 C407.5025,85.58 408.3625,86.3 410.0825,86.3 C410.5625,86.3 411.0025,86.25 411.4025,86.15 C411.8025,86.05 412.1025,85.96 412.3025,85.88 L412.3025,85.88 L412.3025,72.44 L424.4225,84.62 C424.9425,85.18 425.4525,85.61 425.9525,85.91 C426.4525,86.21 427.0025,86.36 427.6025,86.36 Z" id="petnick" fill="#FFFFFF" fill-rule="nonzero"></path>
        </g>
    </g>
</svg>